{
    "asset" : {
        "generator" : "Khronos glTF Blender I/O v1.1.46",
        "version" : "2.0"
    },
    "scene" : 0,
    "scenes" : [
        {
            "name" : "Scene",
            "nodes" : [
                0,
                1,
                2,
                3,
                4,
                5
            ]
        }
    ],
    "nodes" : [
        {
            "mesh" : 0,
            "name" : "Plane",
            "rotation" : [
                0,
                0.6602715849876404,
                0,
                -0.7510269284248352
            ]
        },
        {
            "mesh" : 1,
            "name" : "Rock-14.002",
            "rotation" : [
                -0.6818704009056091,
                -0.16916817426681519,
                0.049334000796079636,
                -0.7099303603172302
            ],
            "scale" : [
                0.09852726757526398,
                0.09938656538724899,
                0.1365937739610672
            ],
            "translation" : [
                -0.08240877836942673,
                0.09203220903873444,
                0.06159810349345207
            ]
        },
        {
            "mesh" : 2,
            "name" : "Rock-14.001",
            "rotation" : [
                0.4436923861503601,
                -0.5249987244606018,
                0.5617954730987549,
                0.4603251516819
            ],
            "scale" : [
                0.004818759858608246,
                0.009441440925002098,
                0.011372189968824387
            ],
            "translation" : [
                -0.3999539315700531,
                -0.08400475978851318,
                0.6590606570243835
            ]
        },
        {
            "mesh" : 3,
            "name" : "Rock-14.004",
            "rotation" : [
                0.05339759215712547,
                -0.7328293323516846,
                0.6782234907150269,
                0.011082732118666172
            ],
            "scale" : [
                0.012760407291352749,
                0.020003652200102806,
                0.024996895343065262
            ],
            "translation" : [
                -0.6508088707923889,
                -0.12766340374946594,
                -0.32664743065834045
            ]
        },
        {
            "name" : "Empty.001",
            "rotation" : [
                0.7071068286895752,
                0,
                0,
                0.7071067094802856
            ],
            "scale" : [
                0.5186420679092407,
                0.5186420679092407,
                0.5186420679092407
            ],
            "translation" : [
                -0.12129595875740051,
                0.3245144188404083,
                0
            ]
        },
        {
            "mesh" : 4,
            "name" : "Rock-14.005",
            "rotation" : [
                0.72618567943573,
                -0.055268481373786926,
                0.053040944039821625,
                0.6832177042961121
            ],
            "scale" : [
                0.006606661714613438,
                0.009281572885811329,
                0.01587783358991146
            ],
            "translation" : [
                0.2587360143661499,
                -0.027633413672447205,
                -0.08127284049987793
            ]
        }
    ],
    "materials" : [
        {
            "doubleSided" : true,
            "emissiveFactor" : [
                0,
                0,
                0
            ],
            "name" : "texturehaven/aerial_grass_rock/1k  JPG  3 MB",
            "normalTexture" : {
                "index" : 0,
                "texCoord" : 0
            },
            "pbrMetallicRoughness" : {
                "baseColorTexture" : {
                    "index" : 1,
                    "texCoord" : 0
                },
                "metallicFactor" : 0,
                "metallicRoughnessTexture" : {
                    "index" : 2,
                    "texCoord" : 0
                }
            }
        },
        {
            "doubleSided" : true,
            "emissiveFactor" : [
                0,
                0,
                0
            ],
            "name" : "Rock-14_lod1",
            "normalTexture" : {
                "index" : 3,
                "texCoord" : 0
            },
            "pbrMetallicRoughness" : {
                "baseColorTexture" : {
                    "index" : 4,
                    "texCoord" : 0
                },
                "metallicFactor" : 0,
                "metallicRoughnessTexture" : {
                    "index" : 5,
                    "texCoord" : 0
                }
            }
        }
    ],
    "meshes" : [
        {
            "name" : "Plane",
            "primitives" : [
                {
                    "attributes" : {
                        "POSITION" : 0,
                        "NORMAL" : 1,
                        "TEXCOORD_0" : 2
                    },
                    "indices" : 3,
                    "material" : 0
                }
            ]
        },
        {
            "name" : "Rock-14_rock-14_lod1.003",
            "primitives" : [
                {
                    "attributes" : {
                        "POSITION" : 4,
                        "NORMAL" : 5,
                        "TEXCOORD_0" : 6
                    },
                    "indices" : 7,
                    "material" : 1
                }
            ]
        },
        {
            "name" : "Rock-14_rock-14_lod1.001",
            "primitives" : [
                {
                    "attributes" : {
                        "POSITION" : 8,
                        "NORMAL" : 9,
                        "TEXCOORD_0" : 10
                    },
                    "indices" : 11,
                    "material" : 1
                }
            ]
        },
        {
            "name" : "Rock-14_rock-14_lod1.004",
            "primitives" : [
                {
                    "attributes" : {
                        "POSITION" : 12,
                        "NORMAL" : 13,
                        "TEXCOORD_0" : 14
                    },
                    "indices" : 15,
                    "material" : 1
                }
            ]
        },
        {
            "name" : "Rock-14_rock-14_lod1.005",
            "primitives" : [
                {
                    "attributes" : {
                        "POSITION" : 16,
                        "NORMAL" : 17,
                        "TEXCOORD_0" : 18
                    },
                    "indices" : 11,
                    "material" : 1
                }
            ]
        }
    ],
    "textures" : [
        {
            "source" : 0
        },
        {
            "source" : 1
        },
        {
            "source" : 2
        },
        {
            "source" : 3
        },
        {
            "source" : 4
        },
        {
            "source" : 5
        }
    ],
    "images" : [
        {
            "bufferView" : 4,
            "mimeType" : "image/jpeg",
            "name" : "normal"
        },
        {
            "bufferView" : 5,
            "mimeType" : "image/jpeg",
            "name" : "baseColor"
        },
        {
            "bufferView" : 6,
            "mimeType" : "image/jpeg",
            "name" : "roughness"
        },
        {
            "bufferView" : 11,
            "mimeType" : "image/jpeg",
            "name" : "rock-14_lod1_normals"
        },
        {
            "bufferView" : 12,
            "mimeType" : "image/jpeg",
            "name" : "rock-14_lod1_color"
        },
        {
            "bufferView" : 13,
            "mimeType" : "image/jpeg",
            "name" : "rock_14_lod1_Roughness"
        }
    ],
    "accessors" : [
        {
            "bufferView" : 0,
            "componentType" : 5126,
            "count" : 256,
            "max" : [
                1.8569331169128418,
                -0.011722752824425697,
                1.8613536357879639
            ],
            "min" : [
                -1.8596644401550293,
                -0.18277576565742493,
                -1.860146403312683
            ],
            "type" : "VEC3"
        },
        {
            "bufferView" : 1,
            "componentType" : 5126,
            "count" : 256,
            "type" : "VEC3"
        },
        {
            "bufferView" : 2,
            "componentType" : 5126,
            "count" : 256,
            "type" : "VEC2"
        },
        {
            "bufferView" : 3,
            "componentType" : 5123,
            "count" : 384,
            "type" : "SCALAR"
        },
        {
            "bufferView" : 7,
            "componentType" : 5126,
            "count" : 1213,
            "max" : [
                6.473237037658691,
                6.891703128814697,
                0.8563439846038818
            ],
            "min" : [
                -6.629611492156982,
                -6.609360694885254,
                -4.218746185302734
            ],
            "type" : "VEC3"
        },
        {
            "bufferView" : 8,
            "componentType" : 5126,
            "count" : 1213,
            "type" : "VEC3"
        },
        {
            "bufferView" : 9,
            "componentType" : 5126,
            "count" : 1213,
            "type" : "VEC2"
        },
        {
            "bufferView" : 10,
            "componentType" : 5123,
            "count" : 6162,
            "type" : "SCALAR"
        },
        {
            "bufferView" : 14,
            "componentType" : 5126,
            "count" : 516,
            "max" : [
                11.345708847045898,
                11.129321098327637,
                0.5745062232017517
            ],
            "min" : [
                -14.701800346374512,
                -7.521492958068848,
                -9.346174240112305
            ],
            "type" : "VEC3"
        },
        {
            "bufferView" : 15,
            "componentType" : 5126,
            "count" : 516,
            "type" : "VEC3"
        },
        {
            "bufferView" : 16,
            "componentType" : 5126,
            "count" : 516,
            "type" : "VEC2"
        },
        {
            "bufferView" : 17,
            "componentType" : 5123,
            "count" : 2460,
            "type" : "SCALAR"
        },
        {
            "bufferView" : 18,
            "componentType" : 5126,
            "count" : 511,
            "max" : [
                7.122872829437256,
                7.286831855773926,
                0.26573804020881653
            ],
            "min" : [
                -7.022469520568848,
                -6.828539848327637,
                -4.853619575500488
            ],
            "type" : "VEC3"
        },
        {
            "bufferView" : 19,
            "componentType" : 5126,
            "count" : 511,
            "type" : "VEC3"
        },
        {
            "bufferView" : 20,
            "componentType" : 5126,
            "count" : 511,
            "type" : "VEC2"
        },
        {
            "bufferView" : 21,
            "componentType" : 5123,
            "count" : 2460,
            "type" : "SCALAR"
        },
        {
            "bufferView" : 22,
            "componentType" : 5126,
            "count" : 516,
            "max" : [
                11.345708847045898,
                11.129321098327637,
                0.5745062232017517
            ],
            "min" : [
                -14.701800346374512,
                -7.521492958068848,
                -9.346174240112305
            ],
            "type" : "VEC3"
        },
        {
            "bufferView" : 23,
            "componentType" : 5126,
            "count" : 516,
            "type" : "VEC3"
        },
        {
            "bufferView" : 24,
            "componentType" : 5126,
            "count" : 516,
            "type" : "VEC2"
        }
    ],
    "bufferViews" : [
        {
            "buffer" : 0,
            "byteLength" : 3072,
            "byteOffset" : 0
        },
        {
            "buffer" : 0,
            "byteLength" : 3072,
            "byteOffset" : 3072
        },
        {
            "buffer" : 0,
            "byteLength" : 2048,
            "byteOffset" : 6144
        },
        {
            "buffer" : 0,
            "byteLength" : 768,
            "byteOffset" : 8192
        },
        {
            "buffer" : 0,
            "byteLength" : 186078,
            "byteOffset" : 8960
        },
        {
            "buffer" : 0,
            "byteLength" : 152934,
            "byteOffset" : 195040
        },
        {
            "buffer" : 0,
            "byteLength" : 50320,
            "byteOffset" : 347976
        },
        {
            "buffer" : 0,
            "byteLength" : 14556,
            "byteOffset" : 398296
        },
        {
            "buffer" : 0,
            "byteLength" : 14556,
            "byteOffset" : 412852
        },
        {
            "buffer" : 0,
            "byteLength" : 9704,
            "byteOffset" : 427408
        },
        {
            "buffer" : 0,
            "byteLength" : 12324,
            "byteOffset" : 437112
        },
        {
            "buffer" : 0,
            "byteLength" : 175746,
            "byteOffset" : 449436
        },
        {
            "buffer" : 0,
            "byteLength" : 140282,
            "byteOffset" : 625184
        },
        {
            "buffer" : 0,
            "byteLength" : 26040,
            "byteOffset" : 765468
        },
        {
            "buffer" : 0,
            "byteLength" : 6192,
            "byteOffset" : 791508
        },
        {
            "buffer" : 0,
            "byteLength" : 6192,
            "byteOffset" : 797700
        },
        {
            "buffer" : 0,
            "byteLength" : 4128,
            "byteOffset" : 803892
        },
        {
            "buffer" : 0,
            "byteLength" : 4920,
            "byteOffset" : 808020
        },
        {
            "buffer" : 0,
            "byteLength" : 6132,
            "byteOffset" : 812940
        },
        {
            "buffer" : 0,
            "byteLength" : 6132,
            "byteOffset" : 819072
        },
        {
            "buffer" : 0,
            "byteLength" : 4088,
            "byteOffset" : 825204
        },
        {
            "buffer" : 0,
            "byteLength" : 4920,
            "byteOffset" : 829292
        },
        {
            "buffer" : 0,
            "byteLength" : 6192,
            "byteOffset" : 834212
        },
        {
            "buffer" : 0,
            "byteLength" : 6192,
            "byteOffset" : 840404
        },
        {
            "buffer" : 0,
            "byteLength" : 4128,
            "byteOffset" : 846596
        }
    ],
    "buffers" : [
        {
            "byteLength" : 850724,
            "uri" : "data:application/octet-stream;base64,"
        }
    ]
}
