{
    "asset" : {
        "generator" : "Khronos glTF Blender I/O v1.1.46",
        "version" : "2.0"
    },
    "scene" : 0,
    "scenes" : [
        {
            "name" : "Scene",
            "nodes" : [
                3
            ]
        }
    ],
    "nodes" : [
        {
            "mesh" : 0,
            "name" : "Plane",
            "rotation" : [
                -0.5,
                -0.5,
                0.5000000596046448,
                0.4999999701976776
            ],
            "scale" : [
                8.376294136047363,
                8.376294136047363,
                8.376294136047363
            ],
            "translation" : [
                0.25552603602409363,
                0,
                2.2722854614257812
            ]
        },
        {
            "mesh" : 1,
            "name" : "Rock-08",
            "rotation" : [
                0,
                0,
                -1,
                4.371138828673793e-08
            ],
            "scale" : [
                25.670473098754883,
                20.61684226989746,
                32.08808898925781
            ],
            "translation" : [
                0.24681356549263,
                0.4134562015533447,
                2.2722854614257812
            ]
        },
        {
            "mesh" : 2,
            "name" : "Rock-08.001",
            "rotation" : [
                -0.57700115442276,
                0.39480990171432495,
                0.5900679230690002,
                0.40375059843063354
            ],
            "scale" : [
                12.603128433227539,
                8.097606658935547,
                12.603128433227539
            ],
            "translation" : [
                0.07208259403705597,
                2.0611138343811035,
                1.109798550605774
            ]
        },
        {
            "children" : [
                0,
                1,
                2
            ],
            "name" : "Empty",
            "rotation" : [
                0.5,
                0.5,
                -0.5,
                0.4999999701976776
            ],
            "scale" : [
                0.8307206034660339,
                0.8307206034660339,
                0.8307206034660339
            ],
            "translation" : [
                0,
                1.88763427734375,
                0.21227072179317474
            ]
        }
    ],
    "materials" : [
        {
            "doubleSided" : true,
            "emissiveFactor" : [
                0,
                0,
                0
            ],
            "name" : "texturehaven/aerial_grass_rock/1k  JPG  3 MB",
            "normalTexture" : {
                "index" : 0,
                "texCoord" : 0
            },
            "pbrMetallicRoughness" : {
                "baseColorTexture" : {
                    "index" : 1,
                    "texCoord" : 0
                },
                "metallicFactor" : 0,
                "metallicRoughnessTexture" : {
                    "index" : 2,
                    "texCoord" : 0
                }
            }
        },
        {
            "doubleSided" : true,
            "emissiveFactor" : [
                0,
                0,
                0
            ],
            "name" : "UV",
            "normalTexture" : {
                "index" : 3,
                "texCoord" : 0
            },
            "pbrMetallicRoughness" : {
                "baseColorTexture" : {
                    "index" : 4,
                    "texCoord" : 0
                },
                "metallicFactor" : 0,
                "metallicRoughnessTexture" : {
                    "index" : 5,
                    "texCoord" : 0
                }
            }
        }
    ],
    "meshes" : [
        {
            "name" : "Plane.002",
            "primitives" : [
                {
                    "attributes" : {
                        "POSITION" : 0,
                        "NORMAL" : 1,
                        "TEXCOORD_0" : 2
                    },
                    "indices" : 3,
                    "material" : 0
                }
            ]
        },
        {
            "name" : "rock-08_lod1",
            "primitives" : [
                {
                    "attributes" : {
                        "POSITION" : 4,
                        "NORMAL" : 5,
                        "TEXCOORD_0" : 6
                    },
                    "indices" : 7,
                    "material" : 1
                }
            ]
        },
        {
            "name" : "rock-08_lod1.001",
            "primitives" : [
                {
                    "attributes" : {
                        "POSITION" : 8,
                        "NORMAL" : 9,
                        "TEXCOORD_0" : 10
                    },
                    "indices" : 11,
                    "material" : 1
                }
            ]
        }
    ],
    "textures" : [
        {
            "source" : 0
        },
        {
            "source" : 1
        },
        {
            "source" : 2
        },
        {
            "source" : 3
        },
        {
            "source" : 4
        },
        {
            "source" : 5
        }
    ],
    "images" : [
        {
            "bufferView" : 4,
            "mimeType" : "image/jpeg",
            "name" : "normal"
        },
        {
            "bufferView" : 5,
            "mimeType" : "image/jpeg",
            "name" : "baseColor"
        },
        {
            "bufferView" : 6,
            "mimeType" : "image/jpeg",
            "name" : "roughness"
        },
        {
            "bufferView" : 11,
            "mimeType" : "image/jpeg",
            "name" : "normals"
        },
        {
            "bufferView" : 12,
            "mimeType" : "image/jpeg",
            "name" : "rock-08_lod1_color"
        },
        {
            "bufferView" : 13,
            "mimeType" : "image/jpeg",
            "name" : "Roughness"
        }
    ],
    "accessors" : [
        {
            "bufferView" : 0,
            "componentType" : 5126,
            "count" : 256,
            "max" : [
                1.3383969068527222,
                0.07774664461612701,
                1.3209643363952637
            ],
            "min" : [
                -1.2636643648147583,
                -0.0201633982360363,
                -1.3085823059082031
            ],
            "type" : "VEC3"
        },
        {
            "bufferView" : 1,
            "componentType" : 5126,
            "count" : 256,
            "type" : "VEC3"
        },
        {
            "bufferView" : 2,
            "componentType" : 5126,
            "count" : 256,
            "type" : "VEC2"
        },
        {
            "bufferView" : 3,
            "componentType" : 5123,
            "count" : 384,
            "type" : "SCALAR"
        },
        {
            "bufferView" : 7,
            "componentType" : 5126,
            "count" : 2411,
            "max" : [
                0.26240086555480957,
                0.31561437249183655,
                0.022946001961827278
            ],
            "min" : [
                -0.2378813624382019,
                -0.21835602819919586,
                -0.25151702761650085
            ],
            "type" : "VEC3"
        },
        {
            "bufferView" : 8,
            "componentType" : 5126,
            "count" : 2411,
            "type" : "VEC3"
        },
        {
            "bufferView" : 9,
            "componentType" : 5126,
            "count" : 2411,
            "type" : "VEC2"
        },
        {
            "bufferView" : 10,
            "componentType" : 5123,
            "count" : 10161,
            "type" : "SCALAR"
        },
        {
            "bufferView" : 14,
            "componentType" : 5126,
            "count" : 941,
            "max" : [
                0.055015623569488525,
                0.042043447494506836,
                0.024211794137954712
            ],
            "min" : [
                -0.04069840908050537,
                -0.04083669185638428,
                -0.02090790867805481
            ],
            "type" : "VEC3"
        },
        {
            "bufferView" : 15,
            "componentType" : 5126,
            "count" : 941,
            "type" : "VEC3"
        },
        {
            "bufferView" : 16,
            "componentType" : 5126,
            "count" : 941,
            "type" : "VEC2"
        },
        {
            "bufferView" : 17,
            "componentType" : 5123,
            "count" : 4716,
            "type" : "SCALAR"
        }
    ],
    "bufferViews" : [
        {
            "buffer" : 0,
            "byteLength" : 3072,
            "byteOffset" : 0
        },
        {
            "buffer" : 0,
            "byteLength" : 3072,
            "byteOffset" : 3072
        },
        {
            "buffer" : 0,
            "byteLength" : 2048,
            "byteOffset" : 6144
        },
        {
            "buffer" : 0,
            "byteLength" : 768,
            "byteOffset" : 8192
        },
        {
            "buffer" : 0,
            "byteLength" : 193961,
            "byteOffset" : 8960
        },
        {
            "buffer" : 0,
            "byteLength" : 182099,
            "byteOffset" : 202924
        },
        {
            "buffer" : 0,
            "byteLength" : 187158,
            "byteOffset" : 385024
        },
        {
            "buffer" : 0,
            "byteLength" : 28932,
            "byteOffset" : 572184
        },
        {
            "buffer" : 0,
            "byteLength" : 28932,
            "byteOffset" : 601116
        },
        {
            "buffer" : 0,
            "byteLength" : 19288,
            "byteOffset" : 630048
        },
        {
            "buffer" : 0,
            "byteLength" : 20322,
            "byteOffset" : 649336
        },
        {
            "buffer" : 0,
            "byteLength" : 156324,
            "byteOffset" : 669660
        },
        {
            "buffer" : 0,
            "byteLength" : 127125,
            "byteOffset" : 825984
        },
        {
            "buffer" : 0,
            "byteLength" : 26853,
            "byteOffset" : 953112
        },
        {
            "buffer" : 0,
            "byteLength" : 11292,
            "byteOffset" : 979968
        },
        {
            "buffer" : 0,
            "byteLength" : 11292,
            "byteOffset" : 991260
        },
        {
            "buffer" : 0,
            "byteLength" : 7528,
            "byteOffset" : 1002552
        },
        {
            "buffer" : 0,
            "byteLength" : 9432,
            "byteOffset" : 1010080
        }
    ],
    "buffers" : [
        {
            "byteLength" : 1019512,
            "uri" : "data:application/octet-stream;base64,"
        }
    ]
}
