{
    "asset" : {
        "generator" : "Khronos glTF Blender I/O v1.1.46",
        "version" : "2.0"
    },
    "scene" : 0,
    "scenes" : [
        {
            "name" : "Scene",
            "nodes" : [
                0,
                1,
                2
            ]
        }
    ],
    "nodes" : [
        {
            "mesh" : 0,
            "name" : "Rock-08.000",
            "rotation" : [
                0.5,
                -0.4999999701976776,
                0.5000000596046448,
                0.4999999403953552
            ],
            "scale" : [
                46.14711380004883,
                27.876388549804688,
                46.14711380004883
            ],
            "translation" : [
                1.3668701648712158,
                0.4057053327560425,
                -0.1234591007232666
            ]
        },
        {
            "mesh" : 1,
            "name" : "Rock-08.001",
            "rotation" : [
                0.12194842100143433,
                -0.795183539390564,
                0.12887464463710785,
                0.5798301696777344
            ],
            "scale" : [
                46.56475830078125,
                42.614444732666016,
                46.47862243652344
            ],
            "translation" : [
                -1.3702647686004639,
                0.702654242515564,
                7.398165702819824
            ]
        },
        {
            "mesh" : 2,
            "name" : "Plane.001",
            "rotation" : [
                0,
                -0.7071067690849304,
                0,
                0.7071067690849304
            ],
            "scale" : [
                2.7254679203033447,
                2.7254679203033447,
                2.7254679203033447
            ],
            "translation" : [
                1.6890521049499512,
                -0.0029529333114624023,
                1.2407231330871582
            ]
        }
    ],
    "materials" : [
        {
            "doubleSided" : true,
            "emissiveFactor" : [
                0,
                0,
                0
            ],
            "name" : "UV",
            "normalTexture" : {
                "index" : 0,
                "texCoord" : 0
            },
            "pbrMetallicRoughness" : {
                "baseColorTexture" : {
                    "index" : 1,
                    "texCoord" : 0
                },
                "metallicFactor" : 0,
                "metallicRoughnessTexture" : {
                    "index" : 2,
                    "texCoord" : 0
                }
            }
        },
        {
            "doubleSided" : true,
            "emissiveFactor" : [
                0,
                0,
                0
            ],
            "name" : "texturehaven/aerial_grass_rock/1k  JPG  3 MB.001",
            "normalTexture" : {
                "index" : 3,
                "texCoord" : 0
            },
            "pbrMetallicRoughness" : {
                "baseColorTexture" : {
                    "index" : 4,
                    "texCoord" : 0
                },
                "metallicFactor" : 0,
                "metallicRoughnessTexture" : {
                    "index" : 5,
                    "texCoord" : 0
                }
            }
        }
    ],
    "meshes" : [
        {
            "name" : "rock-08_lod1",
            "primitives" : [
                {
                    "attributes" : {
                        "POSITION" : 0,
                        "NORMAL" : 1,
                        "TEXCOORD_0" : 2
                    },
                    "indices" : 3,
                    "material" : 0
                }
            ]
        },
        {
            "name" : "rock-08_lod1.002",
            "primitives" : [
                {
                    "attributes" : {
                        "POSITION" : 4,
                        "NORMAL" : 5,
                        "TEXCOORD_0" : 6
                    },
                    "indices" : 7,
                    "material" : 0
                }
            ]
        },
        {
            "name" : "Plane.002",
            "primitives" : [
                {
                    "attributes" : {
                        "POSITION" : 8,
                        "NORMAL" : 9,
                        "TEXCOORD_0" : 10
                    },
                    "indices" : 11,
                    "material" : 1
                }
            ]
        }
    ],
    "textures" : [
        {
            "source" : 0
        },
        {
            "source" : 1
        },
        {
            "source" : 2
        },
        {
            "source" : 3
        },
        {
            "source" : 4
        },
        {
            "source" : 5
        }
    ],
    "images" : [
        {
            "bufferView" : 4,
            "mimeType" : "image/jpeg",
            "name" : "normals"
        },
        {
            "bufferView" : 5,
            "mimeType" : "image/jpeg",
            "name" : "rock-08_lod1_color.jpg"
        },
        {
            "bufferView" : 6,
            "mimeType" : "image/jpeg",
            "name" : "Roughness"
        },
        {
            "bufferView" : 15,
            "mimeType" : "image/jpeg",
            "name" : "normal"
        },
        {
            "bufferView" : 16,
            "mimeType" : "image/jpeg",
            "name" : "baseColor"
        },
        {
            "bufferView" : 17,
            "mimeType" : "image/jpeg",
            "name" : "roughness"
        }
    ],
    "accessors" : [
        {
            "bufferView" : 0,
            "componentType" : 5126,
            "count" : 1457,
            "max" : [
                0.20880210399627686,
                0.27207043766975403,
                0.029407406225800514
            ],
            "min" : [
                -0.18394386768341064,
                -0.21646638214588165,
                -0.295290470123291
            ],
            "type" : "VEC3"
        },
        {
            "bufferView" : 1,
            "componentType" : 5126,
            "count" : 1457,
            "type" : "VEC3"
        },
        {
            "bufferView" : 2,
            "componentType" : 5126,
            "count" : 1457,
            "type" : "VEC2"
        },
        {
            "bufferView" : 3,
            "componentType" : 5123,
            "count" : 7635,
            "type" : "SCALAR"
        },
        {
            "bufferView" : 7,
            "componentType" : 5126,
            "count" : 37,
            "max" : [
                0.035609759390354156,
                0.025466233491897583,
                0.04754547029733658
            ],
            "min" : [
                -0.05064067989587784,
                -0.043567776679992676,
                -0.048704855144023895
            ],
            "type" : "VEC3"
        },
        {
            "bufferView" : 8,
            "componentType" : 5126,
            "count" : 37,
            "type" : "VEC3"
        },
        {
            "bufferView" : 9,
            "componentType" : 5126,
            "count" : 37,
            "type" : "VEC2"
        },
        {
            "bufferView" : 10,
            "componentType" : 5123,
            "count" : 126,
            "type" : "SCALAR"
        },
        {
            "bufferView" : 11,
            "componentType" : 5126,
            "count" : 1024,
            "max" : [
                6.488370418548584,
                1.1168838739395142,
                6.529240608215332
            ],
            "min" : [
                -6.485228538513184,
                -0.1777966022491455,
                -6.496136665344238
            ],
            "type" : "VEC3"
        },
        {
            "bufferView" : 12,
            "componentType" : 5126,
            "count" : 1024,
            "type" : "VEC3"
        },
        {
            "bufferView" : 13,
            "componentType" : 5126,
            "count" : 1024,
            "type" : "VEC2"
        },
        {
            "bufferView" : 14,
            "componentType" : 5123,
            "count" : 1536,
            "type" : "SCALAR"
        }
    ],
    "bufferViews" : [
        {
            "buffer" : 0,
            "byteLength" : 17484,
            "byteOffset" : 0
        },
        {
            "buffer" : 0,
            "byteLength" : 17484,
            "byteOffset" : 17484
        },
        {
            "buffer" : 0,
            "byteLength" : 11656,
            "byteOffset" : 34968
        },
        {
            "buffer" : 0,
            "byteLength" : 15270,
            "byteOffset" : 46624
        },
        {
            "buffer" : 0,
            "byteLength" : 156324,
            "byteOffset" : 61896
        },
        {
            "buffer" : 0,
            "byteLength" : 127125,
            "byteOffset" : 218220
        },
        {
            "buffer" : 0,
            "byteLength" : 26853,
            "byteOffset" : 345348
        },
        {
            "buffer" : 0,
            "byteLength" : 444,
            "byteOffset" : 372204
        },
        {
            "buffer" : 0,
            "byteLength" : 444,
            "byteOffset" : 372648
        },
        {
            "buffer" : 0,
            "byteLength" : 296,
            "byteOffset" : 373092
        },
        {
            "buffer" : 0,
            "byteLength" : 252,
            "byteOffset" : 373388
        },
        {
            "buffer" : 0,
            "byteLength" : 12288,
            "byteOffset" : 373640
        },
        {
            "buffer" : 0,
            "byteLength" : 12288,
            "byteOffset" : 385928
        },
        {
            "buffer" : 0,
            "byteLength" : 8192,
            "byteOffset" : 398216
        },
        {
            "buffer" : 0,
            "byteLength" : 3072,
            "byteOffset" : 406408
        },
        {
            "buffer" : 0,
            "byteLength" : 193961,
            "byteOffset" : 409480
        },
        {
            "buffer" : 0,
            "byteLength" : 182099,
            "byteOffset" : 603444
        },
        {
            "buffer" : 0,
            "byteLength" : 187158,
            "byteOffset" : 785544
        }
    ],
    "buffers" : [
        {
            "byteLength" : 972704,
            "uri" : "data:application/octet-stream;base64,"
        }
    ]
}
