{
    "asset" : {
        "generator" : "Khronos glTF Blender I/O v1.1.46",
        "version" : "2.0"
    },
    "scene" : 0,
    "scenes" : [
        {
            "name" : "Scene",
            "nodes" : [
                0
            ]
        }
    ],
    "nodes" : [
        {
            "mesh" : 0,
            "name" : "Rock-08.000",
            "scale" : [
                3.972431182861328,
                3.972431182861328,
                3.972431182861328
            ]
        }
    ],
    "materials" : [
        {
            "doubleSided" : true,
            "emissiveFactor" : [
                0,
                0,
                0
            ],
            "name" : "UV",
            "normalTexture" : {
                "index" : 0,
                "texCoord" : 0
            },
            "pbrMetallicRoughness" : {
                "baseColorTexture" : {
                    "index" : 1,
                    "texCoord" : 0
                },
                "metallicFactor" : 0,
                "metallicRoughnessTexture" : {
                    "index" : 2,
                    "texCoord" : 0
                }
            }
        },
        {
            "doubleSided" : true,
            "emissiveFactor" : [
                0,
                0,
                0
            ],
            "name" : "texturehaven/aerial_grass_rock/1k  JPG  3 MB.001",
            "normalTexture" : {
                "index" : 3,
                "texCoord" : 0
            },
            "pbrMetallicRoughness" : {
                "baseColorTexture" : {
                    "index" : 4,
                    "texCoord" : 0
                },
                "metallicFactor" : 0,
                "metallicRoughnessTexture" : {
                    "index" : 5,
                    "texCoord" : 0
                }
            }
        }
    ],
    "meshes" : [
        {
            "name" : "rock-08_lod1",
            "primitives" : [
                {
                    "attributes" : {
                        "POSITION" : 0,
                        "NORMAL" : 1,
                        "TEXCOORD_0" : 2
                    },
                    "indices" : 3,
                    "material" : 0
                },
                {
                    "attributes" : {
                        "POSITION" : 4,
                        "NORMAL" : 5,
                        "TEXCOORD_0" : 6
                    },
                    "indices" : 7,
                    "material" : 1
                }
            ]
        }
    ],
    "textures" : [
        {
            "source" : 0
        },
        {
            "source" : 1
        },
        {
            "source" : 2
        },
        {
            "source" : 3
        },
        {
            "source" : 4
        },
        {
            "source" : 5
        }
    ],
    "images" : [
        {
            "bufferView" : 4,
            "mimeType" : "image/jpeg",
            "name" : "normals"
        },
        {
            "bufferView" : 5,
            "mimeType" : "image/jpeg",
            "name" : "rock-08_lod1_color"
        },
        {
            "bufferView" : 6,
            "mimeType" : "image/jpeg",
            "name" : "Roughness"
        },
        {
            "bufferView" : 11,
            "mimeType" : "image/jpeg",
            "name" : "normal"
        },
        {
            "bufferView" : 12,
            "mimeType" : "image/jpeg",
            "name" : "baseColor"
        },
        {
            "bufferView" : 13,
            "mimeType" : "image/jpeg",
            "name" : "roughness"
        }
    ],
    "accessors" : [
        {
            "bufferView" : 0,
            "componentType" : 5126,
            "count" : 1501,
            "max" : [
                0.38213565945625305,
                0.7245258092880249,
                0.49113112688064575
            ],
            "min" : [
                -0.32101917266845703,
                -0.04912068322300911,
                -0.44465112686157227
            ],
            "type" : "VEC3"
        },
        {
            "bufferView" : 1,
            "componentType" : 5126,
            "count" : 1501,
            "type" : "VEC3"
        },
        {
            "bufferView" : 2,
            "componentType" : 5126,
            "count" : 1501,
            "type" : "VEC2"
        },
        {
            "bufferView" : 3,
            "componentType" : 5123,
            "count" : 7761,
            "type" : "SCALAR"
        },
        {
            "bufferView" : 7,
            "componentType" : 5126,
            "count" : 1536,
            "max" : [
                1.0013535022735596,
                0.1570168137550354,
                0.9771124720573425
            ],
            "min" : [
                -0.8315938115119934,
                -0.025172224268317223,
                -0.848548412322998
            ],
            "type" : "VEC3"
        },
        {
            "bufferView" : 8,
            "componentType" : 5126,
            "count" : 1536,
            "type" : "VEC3"
        },
        {
            "bufferView" : 9,
            "componentType" : 5126,
            "count" : 1536,
            "type" : "VEC2"
        },
        {
            "bufferView" : 10,
            "componentType" : 5123,
            "count" : 1536,
            "type" : "SCALAR"
        }
    ],
    "bufferViews" : [
        {
            "buffer" : 0,
            "byteLength" : 18012,
            "byteOffset" : 0
        },
        {
            "buffer" : 0,
            "byteLength" : 18012,
            "byteOffset" : 18012
        },
        {
            "buffer" : 0,
            "byteLength" : 12008,
            "byteOffset" : 36024
        },
        {
            "buffer" : 0,
            "byteLength" : 15522,
            "byteOffset" : 48032
        },
        {
            "buffer" : 0,
            "byteLength" : 156324,
            "byteOffset" : 63556
        },
        {
            "buffer" : 0,
            "byteLength" : 127125,
            "byteOffset" : 219880
        },
        {
            "buffer" : 0,
            "byteLength" : 26853,
            "byteOffset" : 347008
        },
        {
            "buffer" : 0,
            "byteLength" : 18432,
            "byteOffset" : 373864
        },
        {
            "buffer" : 0,
            "byteLength" : 18432,
            "byteOffset" : 392296
        },
        {
            "buffer" : 0,
            "byteLength" : 12288,
            "byteOffset" : 410728
        },
        {
            "buffer" : 0,
            "byteLength" : 3072,
            "byteOffset" : 423016
        },
        {
            "buffer" : 0,
            "byteLength" : 193961,
            "byteOffset" : 426088
        },
        {
            "buffer" : 0,
            "byteLength" : 182099,
            "byteOffset" : 620052
        },
        {
            "buffer" : 0,
            "byteLength" : 187158,
            "byteOffset" : 802152
        }
    ],
    "buffers" : [
        {
            "byteLength" : 989312,
            "uri" : "data:application/octet-stream;base64,"
        }
    ]
}
